<svg width="318" height="318" viewBox="0 0 318 318" fill="none" xmlns="http://www.w3.org/2000/svg">
<path d="M317.258 99.2863C317.268 99.2701 317.28 99.257 317.29 99.2409C317.31 99.2079 317.326 99.1736 317.346 99.14C317.394 99.0585 317.441 98.9764 317.484 98.8917C317.513 98.8351 317.54 98.7779 317.566 98.7206C317.604 98.6403 317.638 98.5594 317.671 98.4773C317.698 98.4119 317.721 98.346 317.744 98.28C317.769 98.2047 317.794 98.1294 317.816 98.0522C317.838 97.9763 317.857 97.9004 317.874 97.8239C317.89 97.7548 317.905 97.6851 317.918 97.6148C317.934 97.5289 317.947 97.4436 317.958 97.3577C317.966 97.2937 317.974 97.2289 317.979 97.1636C317.987 97.0709 317.991 96.9781 317.993 96.8854C317.994 96.8456 317.999 96.807 317.999 96.7672C317.999 96.7435 317.996 96.7199 317.996 96.6962C317.994 96.6085 317.989 96.5207 317.983 96.433C317.978 96.3621 317.973 96.2911 317.965 96.2208C317.956 96.1486 317.943 96.077 317.932 96.0055C317.918 95.9233 317.905 95.8406 317.887 95.7603C317.874 95.7018 317.857 95.6439 317.843 95.586C317.819 95.4964 317.796 95.4068 317.768 95.3197C317.75 95.2662 317.729 95.2139 317.71 95.161C317.678 95.0732 317.646 94.9861 317.609 94.9009C317.584 94.8418 317.554 94.7851 317.525 94.7272C317.488 94.6526 317.454 94.5773 317.413 94.5045C317.375 94.4348 317.332 94.3682 317.289 94.3003C317.253 94.2425 317.219 94.184 317.18 94.1286C317.129 94.0545 317.073 93.983 317.018 93.9114C316.982 93.8647 316.948 93.8174 316.91 93.772C316.852 93.7029 316.79 93.6376 316.727 93.5716C316.685 93.5268 316.644 93.4808 316.6 93.4372C316.542 93.3806 316.48 93.3271 316.419 93.2729C316.363 93.2231 316.307 93.1733 316.249 93.1267C316.195 93.0837 316.139 93.0439 316.084 93.0035C316.011 92.9499 315.938 92.8983 315.862 92.8491C315.843 92.8367 315.826 92.8217 315.806 92.8099L275.978 67.9175C275.951 67.9007 275.923 67.8877 275.895 67.8715C275.84 67.8385 275.786 67.8049 275.729 67.7744C275.694 67.7557 275.659 67.7383 275.624 67.7209C275.568 67.6923 275.512 67.6661 275.455 67.64C275.409 67.6188 275.364 67.5971 275.318 67.5771C275.285 67.5635 275.253 67.5516 275.221 67.5392C275.145 67.5093 275.069 67.4819 274.992 67.4564C274.964 67.4471 274.938 67.4346 274.909 67.4259C274.901 67.4234 274.892 67.4216 274.884 67.4191C274.857 67.411 274.829 67.4041 274.802 67.3961C274.713 67.3699 274.624 67.3481 274.534 67.3276C274.5 67.3201 274.466 67.3095 274.432 67.3027C274.41 67.2983 274.387 67.2965 274.365 67.2921C274.274 67.2753 274.183 67.2616 274.092 67.2498C274.026 67.2417 273.961 67.2336 273.895 67.228C273.815 67.2212 273.735 67.2175 273.655 67.215C273.578 67.2125 273.502 67.2106 273.426 67.2118C273.356 67.2131 273.287 67.2168 273.217 67.2212C273.19 67.223 273.163 67.2231 273.135 67.2249C273.117 67.2262 273.099 67.2255 273.081 67.2274C273.043 67.2311 273.006 67.238 272.968 67.2423C272.904 67.2498 272.84 67.2598 272.776 67.2697C272.755 67.2728 272.734 67.2753 272.713 67.2791C272.685 67.284 272.656 67.2859 272.628 67.2915C272.593 67.2983 272.56 67.3083 272.525 67.3158C272.461 67.3295 272.398 67.3463 272.334 67.3624C272.254 67.383 272.175 67.4041 272.097 67.429C272.029 67.4508 271.962 67.4751 271.894 67.5C271.845 67.518 271.794 67.5336 271.746 67.5535C271.725 67.5616 271.705 67.5728 271.685 67.5815C271.612 67.612 271.541 67.6462 271.47 67.6804C271.421 67.7041 271.372 67.7259 271.324 67.7508C271.319 67.7533 271.313 67.7551 271.308 67.7582L200.013 105.783L157.633 53.9853C157.632 53.9828 157.629 53.9809 157.627 53.9784C157.614 53.9623 157.6 53.9467 157.587 53.9305C157.554 53.8913 157.518 53.8558 157.483 53.8179C157.417 53.7445 157.351 53.6704 157.281 53.6013C157.239 53.5609 157.194 53.5242 157.151 53.4856C157.083 53.424 157.017 53.3617 156.945 53.3039C156.877 53.2497 156.805 53.2006 156.735 53.1495C156.729 53.1458 156.724 53.1414 156.719 53.1377C156.672 53.1047 156.627 53.0686 156.579 53.0369C156.508 52.9896 156.431 52.9485 156.356 52.905C156.3 52.872 156.244 52.8365 156.187 52.806C156.117 52.7693 156.043 52.7388 155.971 52.7058C155.905 52.6753 155.839 52.6417 155.771 52.6143C155.707 52.5882 155.64 52.5677 155.573 52.5446C155.494 52.5166 155.415 52.4874 155.335 52.4637C155.325 52.4606 155.315 52.4563 155.305 52.4538C155.234 52.4332 155.163 52.4208 155.092 52.404C155.028 52.3891 154.965 52.3716 154.9 52.3592C154.872 52.3542 154.845 52.348 154.818 52.343L15.4445 27.4525C15.3984 27.4444 15.353 27.4419 15.3069 27.4351C15.2229 27.4226 15.1395 27.4108 15.0555 27.4027C14.9784 27.3953 14.9024 27.3915 14.8259 27.3884C14.7531 27.3853 14.6803 27.3828 14.6075 27.3828C14.5241 27.3828 14.4413 27.3859 14.3585 27.3909C14.2913 27.3946 14.2235 27.3996 14.1563 27.4058C14.0729 27.4139 13.9901 27.4251 13.908 27.4382C13.8395 27.4488 13.7717 27.4606 13.7039 27.4737C13.6255 27.4892 13.5483 27.5073 13.4711 27.5272C13.3996 27.5452 13.328 27.5652 13.2571 27.5869C13.1855 27.6087 13.1158 27.6324 13.0455 27.6579C12.9714 27.6846 12.8986 27.7126 12.8258 27.7431C12.7586 27.7711 12.6932 27.8016 12.6273 27.8327C12.5563 27.8663 12.486 27.9012 12.4163 27.9385C12.3485 27.9753 12.2825 28.0138 12.2172 28.0537C12.1543 28.0916 12.0915 28.1302 12.0299 28.1713C11.9577 28.2198 11.888 28.2708 11.8189 28.3231C11.7828 28.3505 11.7442 28.3742 11.7087 28.4028C11.6919 28.4158 11.6783 28.4308 11.6615 28.4445C11.5918 28.5017 11.5252 28.5627 11.4586 28.6243C11.4107 28.6685 11.3615 28.7121 11.3154 28.7581C11.2557 28.8179 11.2003 28.8813 11.1437 28.9442C11.097 28.9965 11.0491 29.0475 11.0055 29.101C10.9558 29.162 10.9097 29.2267 10.863 29.2908C10.8195 29.3499 10.7747 29.4084 10.7342 29.4688C10.6919 29.5329 10.6539 29.5995 10.6147 29.6661C10.5761 29.7308 10.5363 29.7943 10.5015 29.8602C10.4666 29.9262 10.4361 29.9953 10.4044 30.0631C10.3714 30.1334 10.3372 30.2031 10.3079 30.2747C10.2805 30.3406 10.2581 30.4091 10.2339 30.4769C10.2065 30.5541 10.1779 30.6313 10.1548 30.7097C10.1355 30.7744 10.12 30.8416 10.1032 30.9082C10.082 30.9928 10.0609 31.0768 10.0447 31.1621C10.0403 31.1839 10.0335 31.205 10.0298 31.2268C10.021 31.2741 10.0186 31.3208 10.0117 31.3681C9.99989 31.4502 9.98806 31.5324 9.98059 31.6151C9.97313 31.6923 9.96939 31.7688 9.96628 31.8454C9.96317 31.9188 9.96068 31.9923 9.96068 32.0657C9.96068 32.1478 9.96441 32.2294 9.96877 32.3109C9.9725 32.38 9.97748 32.4484 9.98433 32.5175C9.99242 32.5996 10.0036 32.6805 10.0161 32.7614C10.0266 32.8311 10.0391 32.9008 10.0528 32.9699C10.0683 33.0471 10.0858 33.123 10.1057 33.1989C10.1243 33.2717 10.1443 33.3439 10.166 33.4161C10.1878 33.4864 10.2115 33.5561 10.2364 33.6252C10.2631 33.6993 10.2911 33.7733 10.3216 33.8461C10.3496 33.9127 10.3795 33.9787 10.4106 34.044C10.4442 34.115 10.4791 34.1853 10.5164 34.255C10.5525 34.3228 10.5917 34.3881 10.6309 34.4541C10.6689 34.5176 10.7075 34.5804 10.7491 34.642C10.7971 34.7136 10.8481 34.7827 10.8997 34.8511C10.9271 34.8879 10.9508 34.9264 10.98 34.9625L40.7588 72.186H4.66732C4.625 72.186 4.58455 72.1909 4.54286 72.1922C4.45698 72.1947 4.3711 72.1984 4.28522 72.2053C4.20992 72.2115 4.13524 72.2202 4.06119 72.2295C3.98838 72.2389 3.91557 72.2501 3.84338 72.2625C3.76124 72.2768 3.68034 72.2942 3.60006 72.3129C3.53534 72.3278 3.47124 72.3447 3.40714 72.3627C3.32438 72.3857 3.24348 72.4106 3.16258 72.4386C3.09972 72.4598 3.03749 72.4828 2.97526 72.5071C2.89872 72.5369 2.82342 72.5681 2.74936 72.6017C2.6834 72.6315 2.61805 72.6633 2.55333 72.6963C2.48675 72.7305 2.42078 72.7653 2.35606 72.8027C2.28699 72.8419 2.21915 72.8836 2.15195 72.9265C2.09407 72.9638 2.03744 73.0018 1.98143 73.041C1.91298 73.0889 1.84639 73.1393 1.78043 73.1916C1.72691 73.2339 1.67526 73.2769 1.62423 73.3211C1.56262 73.3746 1.50163 73.4293 1.44251 73.486C1.38837 73.5376 1.33672 73.5905 1.28507 73.6447C1.23404 73.6982 1.18425 73.7529 1.13571 73.8096C1.07908 73.8755 1.02494 73.9434 0.972047 74.0124C0.946532 74.0454 0.919151 74.0747 0.894258 74.1083C0.879945 74.1282 0.868744 74.1487 0.855053 74.1686C0.801534 74.2446 0.752372 74.3224 0.703209 74.4008C0.670227 74.4543 0.636 74.5078 0.605507 74.5619C0.562567 74.6385 0.523362 74.7169 0.484157 74.7959C0.454286 74.8563 0.423793 74.9167 0.396411 74.9776C0.364051 75.0511 0.336047 75.1264 0.307421 75.2017C0.281284 75.2708 0.253902 75.3398 0.230877 75.4101C0.208474 75.4792 0.189804 75.5502 0.170513 75.6211C0.148732 75.6995 0.126951 75.7779 0.110149 75.857C0.0958356 75.9223 0.0858787 75.9889 0.0740548 76.0549C0.0591194 76.1414 0.0441839 76.2279 0.034227 76.315C0.0267593 76.3778 0.0230254 76.4413 0.0186693 76.5054C0.0118239 76.5969 0.00622309 76.689 0.00497847 76.7805C0.00311155 76.8047 0 76.8284 0 76.8533C0 76.8956 0.00497847 76.9361 0.00622309 76.9777C0.00871233 77.0636 0.0118239 77.1495 0.0192916 77.2354C0.0255147 77.3107 0.034227 77.3847 0.0435616 77.4594C0.0528963 77.5328 0.0640978 77.6057 0.0771663 77.6778C0.0914794 77.7594 0.108904 77.8403 0.127573 77.9205C0.143131 77.9859 0.159311 78.0506 0.177358 78.1147C0.200384 78.1968 0.225276 78.2771 0.252658 78.3574C0.274438 78.4215 0.297464 78.4844 0.322356 78.5472C0.351605 78.6225 0.38272 78.6972 0.415702 78.7706C0.446196 78.8378 0.478556 78.9044 0.511538 78.9704C0.545143 79.0357 0.57937 79.1004 0.615464 79.1639C0.655292 79.2342 0.698231 79.3033 0.741793 79.3718C0.777886 79.4284 0.815225 79.4844 0.853808 79.5392C0.902348 79.6082 0.953378 79.6761 1.00627 79.7427C1.04797 79.7949 1.09029 79.8466 1.13385 79.897C1.18737 79.9592 1.24275 80.0202 1.30063 80.08C1.35166 80.1335 1.40455 80.1851 1.45869 80.2362C1.51283 80.2872 1.56697 80.3376 1.62423 80.3868C1.69019 80.4434 1.75802 80.4969 1.82648 80.5498C1.85946 80.5753 1.88871 80.6027 1.92294 80.6276L109.149 158.61L89.6772 285.179C89.6747 285.194 89.6729 285.209 89.6704 285.225L89.6679 285.24C89.6648 285.259 89.6648 285.278 89.6623 285.297C89.6436 285.43 89.6287 285.562 89.6212 285.694C89.6181 285.746 89.62 285.797 89.6187 285.849C89.6169 285.948 89.6144 286.047 89.6181 286.145C89.6212 286.222 89.6299 286.298 89.6368 286.374C89.6436 286.446 89.648 286.518 89.6579 286.59C89.6704 286.679 89.6884 286.766 89.7059 286.854C89.7177 286.913 89.727 286.972 89.7413 287.03C89.7625 287.119 89.7893 287.206 89.8154 287.294C89.8322 287.351 89.8478 287.407 89.867 287.463C89.895 287.544 89.9274 287.623 89.9598 287.703C89.9847 287.764 90.0083 287.827 90.0363 287.887C90.0674 287.955 90.1023 288.021 90.1365 288.087C90.1726 288.156 90.2074 288.226 90.2467 288.294C90.2784 288.349 90.3139 288.401 90.3475 288.455C90.3948 288.529 90.4421 288.604 90.4943 288.676C90.5273 288.722 90.5628 288.765 90.597 288.809C90.6549 288.884 90.7128 288.958 90.7756 289.03C90.813 289.072 90.8534 289.112 90.892 289.153C90.9555 289.221 91.0183 289.288 91.0861 289.351C91.1366 289.399 91.1907 289.443 91.2436 289.488C91.3033 289.54 91.3624 289.592 91.4253 289.641C91.5018 289.7 91.5828 289.755 91.6637 289.809C91.7078 289.839 91.7495 289.871 91.7943 289.899C91.907 289.97 92.024 290.035 92.1434 290.096C92.1603 290.105 92.1752 290.115 92.192 290.124C92.192 290.124 92.1957 290.125 92.1976 290.126C92.355 290.205 92.5175 290.274 92.6849 290.335C92.7265 290.35 92.7689 290.361 92.8106 290.374C92.9251 290.412 93.0408 290.448 93.1597 290.478C93.2381 290.497 93.3165 290.511 93.3949 290.526C93.4534 290.537 93.51 290.553 93.5698 290.562C93.5897 290.565 93.609 290.564 93.6289 290.567C93.8448 290.597 94.0608 290.618 94.2761 290.618C94.2786 290.618 94.283 290.617 94.283 290.617H94.2854C94.4784 290.617 94.6682 290.601 94.8567 290.577C94.8941 290.572 94.9308 290.568 94.9681 290.562C95.3533 290.505 95.7255 290.4 96.0777 290.252C96.1119 290.238 96.1455 290.224 96.1791 290.21C96.3496 290.134 96.5158 290.049 96.6757 289.953C96.705 289.936 96.7324 289.916 96.761 289.898C96.8954 289.813 97.0248 289.722 97.1499 289.625C97.1873 289.596 97.2246 289.568 97.2607 289.538C97.3995 289.423 97.5314 289.299 97.6565 289.168C97.6876 289.135 97.7175 289.101 97.748 289.067C97.8737 288.928 97.9932 288.782 98.1021 288.628C98.1052 288.623 98.1095 288.618 98.1126 288.614C98.2302 288.445 98.3342 288.265 98.4294 288.08C98.4369 288.065 98.4474 288.052 98.4549 288.037L132.546 219.855L245.495 170.747C245.526 170.734 245.553 170.717 245.583 170.703C245.673 170.661 245.762 170.618 245.85 170.571C245.858 170.566 245.867 170.562 245.876 170.558C245.89 170.551 245.904 170.545 245.919 170.537C245.951 170.519 245.981 170.497 246.013 170.478C246.083 170.437 246.153 170.393 246.221 170.348C246.266 170.318 246.311 170.29 246.355 170.259C246.372 170.247 246.387 170.233 246.404 170.221C246.455 170.183 246.505 170.144 246.554 170.104C246.566 170.095 246.579 170.089 246.591 170.079C246.603 170.069 246.614 170.058 246.625 170.048C246.669 170.012 246.711 169.975 246.752 169.937C246.793 169.9 246.833 169.861 246.873 169.823C246.876 169.821 246.878 169.819 246.881 169.816C246.898 169.8 246.917 169.785 246.934 169.768C246.947 169.755 246.959 169.741 246.972 169.728C247.003 169.696 247.034 169.663 247.064 169.63C247.103 169.588 247.139 169.544 247.177 169.501C247.213 169.459 247.25 169.418 247.285 169.375C247.304 169.35 247.323 169.325 247.342 169.3C247.358 169.281 247.373 169.261 247.388 169.241C247.405 169.218 247.419 169.195 247.435 169.172C247.44 169.165 247.444 169.158 247.449 169.151C247.486 169.1 247.523 169.05 247.556 168.997C247.567 168.981 247.578 168.964 247.588 168.948C247.624 168.89 247.657 168.83 247.691 168.771C247.723 168.715 247.756 168.66 247.785 168.603C247.786 168.601 247.788 168.598 247.789 168.595C247.794 168.587 247.798 168.578 247.802 168.569C247.836 168.503 247.866 168.433 247.896 168.364C247.921 168.308 247.948 168.253 247.97 168.196C247.974 168.186 247.978 168.177 247.982 168.168C248.011 168.094 248.034 168.019 248.059 167.944C248.063 167.933 248.067 167.923 248.07 167.912C248.075 167.898 248.082 167.886 248.087 167.872L248.105 167.812L248.107 167.809L269.067 101.436H313.321C313.324 101.436 313.327 101.436 313.33 101.436C313.34 101.436 313.351 101.434 313.361 101.434C313.534 101.433 313.703 101.422 313.87 101.403C313.918 101.397 313.964 101.388 314.011 101.382C314.147 101.362 314.28 101.337 314.411 101.306C314.46 101.295 314.508 101.282 314.555 101.269C314.69 101.233 314.821 101.191 314.95 101.143C314.99 101.128 315.032 101.114 315.072 101.098C315.239 101.031 315.403 100.957 315.561 100.871C315.564 100.869 315.568 100.866 315.572 100.864C315.72 100.783 315.863 100.692 316.002 100.595C316.054 100.558 316.104 100.519 316.155 100.48C316.248 100.41 316.337 100.337 316.424 100.26C316.473 100.216 316.523 100.172 316.571 100.126C316.686 100.015 316.796 99.8993 316.898 99.7773C316.91 99.7636 316.923 99.7518 316.935 99.7381C317.052 99.5937 317.157 99.4419 317.258 99.2863ZM265.61 81.375L241.782 156.832L206.04 113.146L265.61 81.375ZM26.0225 38.8233L147.56 60.5264L112.835 147.339L26.0225 38.8233ZM233.111 160.975L120.887 152.343L155.418 66.0164L233.111 160.975ZM132.321 209.774L120.292 161.659L224.54 169.678L132.321 209.774ZM124.182 215.707L103.42 257.233L115.284 180.114L124.182 215.707ZM88.8608 132.314L19.0203 81.5206H48.2265L88.8608 132.314ZM276.141 79.0264L297.059 92.0999H272.013L276.141 79.0264Z" fill="black"/>
</svg>
