<svg width="41" height="41" viewBox="0 0 41 41" fill="none" xmlns="http://www.w3.org/2000/svg">
<path d="M20.2703 41C16.1741 41 12.5948 40.2345 9.53221 38.7036C6.46966 37.1352 4.11531 34.8948 2.46919 31.9822C0.823063 29.0697 0 25.653 0 21.7322C0 17.4007 0.842204 13.592 2.52661 10.306C4.2493 7.02004 6.68021 4.48088 9.81933 2.68853C12.9585 0.896175 16.5952 0 20.7297 0C24.8259 0 28.4052 0.784154 31.4678 2.35246C34.5303 3.88343 36.8847 6.10519 38.5308 9.01776C40.1769 11.9303 41 15.347 41 19.2678C41 23.5993 40.1387 27.408 38.416 30.694C36.7316 33.98 34.3198 36.5191 31.1807 38.3115C28.0416 40.1038 24.4048 41 20.2703 41ZM20.1555 32.9344C23.2563 32.9344 25.7064 31.7209 27.5056 29.2937C29.3431 26.8666 30.2619 23.5246 30.2619 19.2678C30.2619 15.7204 29.4388 12.9759 27.7927 11.0342C26.1466 9.0551 23.8497 8.06558 20.902 8.06558C17.7246 8.06558 15.2362 9.27915 13.437 11.7063C11.6377 14.1334 10.7381 17.4754 10.7381 21.7322C10.7381 25.3169 11.542 28.0801 13.1499 30.0219C14.796 31.9636 17.1312 32.9344 20.1555 32.9344Z" fill="#85BAA1"/>
</svg>
